<svg height="75" width="250" xmlns="http://www.w3.org/2000/svg" xmlns:xlink="http://www.w3.org/1999/xlink">
  <path
    d="M 10 0 L 240 0 A 10 10 90 0 1 250 10 L 250 50 A 10 10 90 0 1 240 60 L 140 60 L 125 75 L 110 60 L 10 60 A 10 10 90 0 1 0 50 L 0 10 A 10 10 90 0 1 10 0"
	stroke="#48556a"
    fill="#48556a"
    stroke-width="1"
    />
	    <style type="text/css">
            @import url("https://fonts.googleapis.com/css2?family=Manrope:wght@200..800");
			.textStyle {
				letter-spacing: 4px;	
				fill: #9eafc2;
                font-size: 13px;
			}

		</style>
		<text x="30" y="35" class="textStyle" font-family="manrope">SHARE</text>
       <a xlink:href="https://en-gb.facebook.com/">
            <!-- <image xlink:href="icon-facebook.svg" height="20" width="20" x="115" y="19"/> -->
       </a>
       <a href="https://x.com/?lang=en-gb" target="_blank">
            <image href="icon-twitter.svg" height="20" width="20" x="150" y="19"/>
       </a>
       <a href="https://www.pinterest.com/" target="_blank">
            <image href="icon-pinterest.svg" height="20" width="20" x="185" y="19"/>
       </a>

</svg>